<?xml version="1.0" standalone="no"?>
<!DOCTYPE svg PUBLIC "-//W3C//DTD SVG 20010904//EN"
 "http://www.w3.org/TR/2001/REC-SVG-20010904/DTD/svg10.dtd">
<svg version="1.0" xmlns="http://www.w3.org/2000/svg"
 width="850.000000pt" height="286.000000pt" viewBox="0 0 850.000000 286.000000"
 preserveAspectRatio="xMidYMid meet">

<g transform="translate(0.000000,286.000000) scale(0.100000,-0.100000)"
fill="#000000" stroke="none">
<path d="M1300 2644 c-14 -2 -59 -9 -100 -15 -155 -23 -352 -105 -497 -208
-252 -178 -440 -480 -493 -791 -16 -91 -16 -300 -1 -391 79 -472 430 -864 881
-983 179 -47 324 -56 497 -30 513 76 919 467 1019 981 21 106 23 316 5 423
-90 522 -503 927 -1024 1004 -96 15 -225 19 -287 10z m205 -654 c132 -15 329
-56 436 -91 115 -38 307 -128 333 -157 10 -12 20 -40 23 -64 6 -59 -22 -103
-77 -119 -39 -12 -44 -11 -148 39 -209 101 -416 153 -691 172 -219 15 -477 -7
-643 -55 -117 -34 -208 65 -148 162 10 17 27 36 37 41 32 17 185 51 293 66
124 17 458 20 585 6z m-33 -425 c113 -17 231 -46 338 -82 97 -33 265 -117 296
-148 35 -35 33 -88 -5 -126 -41 -41 -75 -38 -174 15 -193 104 -407 156 -672
163 -189 6 -262 -1 -421 -39 -80 -19 -96 -20 -123 -8 -32 13 -61 54 -61 85 0
34 30 73 69 88 39 16 203 52 271 60 94 10 392 6 482 -8z m-107 -385 c124 -12
259 -41 353 -76 92 -35 218 -100 241 -126 26 -28 27 -68 1 -95 -35 -38 -53
-37 -152 13 -214 107 -369 139 -641 131 -105 -3 -216 -12 -262 -22 -143 -29
-148 -29 -172 -6 -34 32 -39 68 -16 99 22 29 39 35 168 58 181 32 320 39 480
24z"/>
<path d="M6470 2073 c-43 -22 -80 -76 -80 -115 0 -141 194 -190 253 -65 22 46
21 85 -3 124 -38 64 -110 87 -170 56z"/>
<path d="M6998 2027 c-104 -30 -152 -96 -170 -233 l-12 -84 -48 0 -48 0 0 -89
c0 -98 2 -101 66 -101 l34 0 0 -319 c0 -261 3 -321 14 -330 9 -8 47 -11 107
-9 l94 3 3 328 2 327 89 0 89 0 131 -316 c72 -174 131 -322 131 -330 0 -7 -12
-26 -26 -43 -22 -26 -33 -31 -70 -31 -25 0 -61 7 -81 15 -20 8 -37 14 -39 12
-8 -8 -64 -141 -64 -152 0 -20 94 -55 164 -62 127 -12 220 36 278 143 28 51
368 923 368 943 0 7 -34 11 -109 11 l-109 0 -98 -285 c-55 -157 -101 -285
-104 -285 -3 0 -36 81 -73 181 -38 99 -86 227 -109 285 l-40 104 -164 0 -164
0 0 45 c0 36 6 52 26 72 24 23 30 25 82 19 120 -13 107 -23 107 78 l0 90 -30
8 c-59 16 -179 18 -227 5z"/>
<path d="M3320 1986 c-124 -27 -223 -104 -261 -205 -17 -45 -20 -72 -17 -136
5 -90 26 -141 80 -191 58 -55 108 -76 373 -153 95 -28 132 -52 143 -94 14 -50
4 -83 -34 -116 -41 -36 -81 -45 -184 -39 -87 5 -167 38 -253 103 l-46 35 -66
-77 -67 -78 39 -33 c56 -48 208 -120 288 -137 91 -19 206 -19 280 0 166 44
254 143 263 298 6 99 -10 155 -60 212 -65 74 -122 101 -321 156 -176 48 -217
77 -217 154 0 32 6 47 28 67 82 80 234 60 409 -52 12 -8 24 -12 26 -10 35 45
107 152 107 159 0 14 -118 85 -180 108 -61 23 -178 43 -237 42 -21 0 -63 -6
-93 -13z"/>
<path d="M5897 1934 c-4 -4 -7 -56 -7 -116 l0 -108 -50 0 -51 0 3 -92 3 -93
47 -3 46 -3 4 -247 c4 -273 8 -295 71 -360 63 -65 215 -80 322 -33 l46 20 -3
83 c-3 82 -3 83 -28 80 -132 -15 -148 -14 -169 7 -20 20 -21 31 -21 236 l0
214 108 3 107 3 3 93 3 92 -110 0 -110 0 -3 113 -3 112 -101 3 c-55 1 -103 0
-107 -4z"/>
<path d="M4313 1716 c-44 -14 -91 -44 -135 -84 l-28 -26 0 52 0 52 -105 0
-105 0 0 -544 c0 -426 3 -545 13 -548 6 -2 54 -2 105 0 l92 4 0 170 0 170 38
-30 c82 -65 118 -77 227 -77 89 0 107 3 162 29 145 67 233 218 233 401 0 193
-86 343 -236 412 -68 31 -196 41 -261 19z m173 -212 c71 -43 104 -112 104
-213 0 -154 -84 -251 -215 -251 -129 0 -225 107 -225 250 0 196 180 311 336
214z"/>
<path d="M5203 1715 c-79 -22 -131 -51 -195 -113 -205 -195 -173 -529 64 -682
83 -54 165 -74 283 -68 84 5 104 10 169 41 90 45 165 121 209 214 30 64 32 74
32 184 0 113 -1 116 -38 191 -94 192 -314 289 -524 233z m224 -204 c77 -39
133 -134 133 -226 0 -51 -27 -127 -60 -167 -80 -96 -242 -106 -334 -20 -95 89
-102 275 -13 370 65 70 185 89 274 43z"/>
<path d="M6422 1288 l3 -423 100 0 100 0 3 423 2 422 -105 0 -105 0 2 -422z"/>
<path d="M8085 1677 c-57 -57 -59 -132 -4 -186 91 -92 240 -12 221 118 -3 20
-18 47 -39 67 -30 31 -39 34 -89 34 -50 0 -60 -4 -89 -33z m171 -11 c28 -28
34 -41 34 -78 0 -92 -81 -149 -164 -114 -52 22 -71 59 -67 135 1 12 16 38 35
57 29 29 41 34 81 34 40 0 52 -5 81 -34z"/>
<path d="M8120 1590 c0 -56 3 -70 15 -70 8 0 15 9 15 19 0 31 17 33 38 6 19
-24 42 -33 42 -17 0 4 -5 13 -12 20 -9 9 -9 15 0 24 7 7 12 25 12 40 0 32 -28
48 -81 48 l-29 0 0 -70z m85 20 c0 -9 -11 -16 -27 -18 -23 -3 -28 1 -28 18 0
17 5 21 28 18 16 -2 27 -9 27 -18z"/>
</g>
</svg>
