<?xml version="1.0" standalone="no"?>
<!DOCTYPE svg PUBLIC "-//W3C//DTD SVG 20010904//EN"
 "http://www.w3.org/TR/2001/REC-SVG-20010904/DTD/svg10.dtd">
<svg version="1.0" xmlns="http://www.w3.org/2000/svg"
 width="900.000000pt" height="512.000000pt" viewBox="0 0 900.000000 512.000000"
 preserveAspectRatio="xMidYMid meet">

<g transform="translate(0.000000,512.000000) scale(0.100000,-0.100000)"
fill="#000000" stroke="none">
<path d="M3140 4743 c-288 -17 -544 -125 -768 -322 -244 -214 -391 -506 -424
-838 -32 -328 61 -644 268 -908 34 -44 562 -579 1173 -1190 l1111 -1110 1106
1105 c608 608 1135 1141 1170 1185 532 658 284 1641 -501 1983 -145 63 -297
92 -488 93 -197 1 -362 -36 -547 -122 -178 -83 -251 -141 -523 -408 l-217
-214 -218 215 c-119 118 -254 242 -298 275 -239 177 -556 273 -844 256z m300
-473 c93 -26 207 -82 274 -133 28 -22 216 -204 418 -406 l368 -366 377 377
c403 400 449 439 599 499 313 125 675 44 911 -204 78 -82 124 -154 170 -267
97 -237 69 -533 -72 -756 -25 -41 -342 -364 -1011 -1034 l-974 -975 -979 980
c-745 747 -987 994 -1014 1040 -85 145 -119 269 -120 435 0 241 87 446 257
608 118 112 242 177 406 213 111 25 281 20 390 -11z"/>
</g>
</svg>
